<svg xmlns="http://www.w3.org/2000/svg" viewBox="0 0 64 64" role="img" aria-label="Pawcort logo">
  <rect width="64" height="64" rx="16" fill="#FFF7EE"/>
  <circle cx="32" cy="32" r="24" fill="#FF6B35"/>
  <path d="M24 34c0-4 3-7 8-7s8 3 8 7c0 4-3 7-8 7s-8-3-8-7Zm-2-8c0-2 1-3 3-3 2 0 3 1 3 3s-1 3-3 3c-2 0-3-1-3-3Zm16 0c0-2 1-3 3-3 2 0 3 1 3 3s-1 3-3 3c-2 0-3-1-3-3Zm-5-6c0-2 1-3 3-3 2 0 3 1 3 3s-1 3-3 3c-2 0-3-1-3-3Z" fill="#FFF"/>
  <path d="M24 44c2 3 5 4 8 4s6-1 8-4" stroke="#FFF" stroke-width="2" stroke-linecap="round"/>
</svg>
